# xmcd
#
# Track frame offsets:
#	150
#	17503
#	18240
#	38030
#	54421
#	72039
#	87701
#	104907
#	122687
#	134592
#	141330
#	155592
#	170457
#	173494
#	195637
#	212007
#	219529
#	227441
#	238915
#	261503
#	276777
#
# Disc length: 3952 seconds
#
# Revision: 0
# Processed by: cddbd v1.5.1PL2 Copyright (c) Steve Scherf et al.
# Submitted via: EasyCDDAExtractor 8.1.2.3
#
DISCID=350f6e15
DTITLE=Snoop Dogg - 50 cent and a million
DYEAR=2004
DGENRE=Rap
TTITLE0=Snoop world
TTITLE1=I can't take the heat
TTITLE2=Woof
TTITLE3=Gin and Juice 2
TTITLE4=Show me love
TTITLE5=Hustle and ball
TTITLE6=Don't let go
TTITLE7=Tru tank dogs
TTITLE8=Watcha gon do
TTITLE9=Still a G thang
TTITLE10=20 dollars for my name
TTITLE11=D.O.G.'S get lonely
TTITLE12=Ain't nut'in personal
TTITLE13=DP gangsta
TTITLE14=Game of life
TTITLE15=See ya when I get there
TTITLE16=Pay for P...
TTITLE17=Picture this
TTITLE18=Dogz gonna get ya
TTITLE19=Hoes, money and clout
TTITLE20=Get bout it and rowdy
EXTD=
EXTT0=
EXTT1=
EXTT2=
EXTT3=
EXTT4=
EXTT5=
EXTT6=
EXTT7=
EXTT8=
EXTT9=
EXTT10=
EXTT11=
EXTT12=
EXTT13=
EXTT14=
EXTT15=
EXTT16=
EXTT17=
EXTT18=
EXTT19=
EXTT20=
PLAYORDER=
